<?xml version="1.0" encoding="UTF-8" standalone="no" ?>
<!DOCTYPE svg PUBLIC "-//W3C//DTD SVG 1.1//EN" "http://www.w3.org/Graphics/SVG/1.1/DTD/svg11.dtd">
<svg xmlns="http://www.w3.org/2000/svg" xmlns:xlink="http://www.w3.org/1999/xlink" version="1.1" width="1080" height="1080" viewBox="0 0 1080 1080" xml:space="preserve">
<desc>Created with Fabric.js 5.2.4</desc>
<defs>
</defs>
<rect x="0" y="0" width="100%" height="100%" fill="transparent"></rect>
<g transform="matrix(1 0 0 1 540 540)" id="9e99da56-0829-457e-9bfb-ae3f8bd28dce"  >
<rect style="stroke: none; stroke-width: 1; stroke-dasharray: none; stroke-linecap: butt; stroke-dashoffset: 0; stroke-linejoin: miter; stroke-miterlimit: 4; fill: rgb(255,255,255); fill-rule: nonzero; opacity: 1; visibility: hidden;" vector-effect="non-scaling-stroke"  x="-540" y="-540" rx="0" ry="0" width="1080" height="1080" />
</g>
<g transform="matrix(1 0 0 1 540 540)" id="3ee7e92a-2203-4dfe-beee-6a3de9bfb1ad"  >
</g>
<g transform="matrix(43.76 0 0 43.76 491.96 540)" id="0b0580a4-f767-43bf-bac2-ce09b2d0fb68"  >
<path style="stroke: rgb(0,0,0); stroke-width: 0; stroke-dasharray: none; stroke-linecap: butt; stroke-dashoffset: 0; stroke-linejoin: miter; stroke-miterlimit: 4; fill: rgb(0,0,0); fill-rule: nonzero; opacity: 1;" vector-effect="non-scaling-stroke"  transform=" translate(-12, -12)" d="M 9.103 0.435 C 9.5377 0.04370000000000002 10.19 -0.10120000000000001 10.7552 0.07269999999999999 C 10.9726 0.1452 11.161 0.2757 11.363900000000001 0.40599999999999997 C 11.5234 0.5075 11.7118 0.5509999999999999 11.856700000000002 0.667 C 11.929200000000002 0.7250000000000001 11.871200000000002 0.8264 11.871200000000002 0.8988 C 12.059600000000001 1.3481 12.161100000000001 1.8409 12.001700000000001 2.3192000000000004 C 11.871200000000002 2.4786 11.639300000000002 2.5222 11.4509 2.5946000000000002 C 11.4219 2.7975000000000003 11.4944 2.9859 11.5234 3.1888 C 11.4799 3.2178 11.4509 3.2468 11.4074 3.2758000000000003 C 11.6828 3.2613000000000003 11.958200000000001 3.2033000000000005 12.233600000000001 3.1454000000000004 C 12.335 3.0439000000000003 12.4944 3.1019000000000005 12.6249 3.0874000000000006 C 12.6394 2.8844000000000007 12.7119 2.6960000000000006 12.7119 2.4931000000000005 C 12.7409 2.4931000000000005 12.7989 2.4786000000000006 12.8278 2.4641000000000006 C 12.8423 2.6091000000000006 12.8278 2.7541000000000007 12.8713 2.8990000000000005 C 12.9437 2.9570000000000003 13.0597 2.9280000000000004 13.1467 2.9424000000000006 C 13.1467 3.0004000000000004 13.1467 3.0584000000000007 13.1611 3.1164000000000005 C 14.8424 3.1019000000000005 16.5381 3.1164000000000005 18.2194 3.1164000000000005 L 18.2194 3.3628000000000005 L 18.3789 3.3628000000000005 L 18.3789 2.4207000000000005 L 18.567300000000003 2.4207000000000005 C 18.567300000000003 2.6816000000000004 18.5528 2.9279000000000006 18.567300000000003 3.1888000000000005 C 18.587141950983447 3.206951978390072 18.61291308488091 3.2172604319490574 18.639800000000005 3.2178000000000004 C 18.639800000000005 3.2468000000000004 18.654200000000003 3.3048000000000006 18.654200000000003 3.3338000000000005 C 18.712200000000003 3.2758000000000007 18.784700000000004 3.2323000000000004 18.871600000000004 3.2613000000000008 C 18.886100000000006 3.3048000000000006 18.900600000000004 3.348300000000001 18.915100000000006 3.4063000000000008 C 18.857100000000006 3.4643000000000006 18.828100000000006 3.5367000000000006 18.857100000000006 3.6236000000000006 C 19.321000000000005 3.6381000000000006 19.784800000000008 3.6236000000000006 20.263100000000005 3.6236000000000006 C 20.306500000000003 3.5656000000000008 20.379000000000005 3.5366000000000004 20.451500000000006 3.5076000000000005 C 20.480500000000006 3.5222000000000007 20.523900000000005 3.5512000000000006 20.538500000000006 3.5656000000000003 L 21.219600000000007 3.5656000000000003 C 21.248600000000007 3.6816000000000004 21.248600000000007 3.7976000000000005 21.23410000000001 3.8990000000000005 L 20.53840000000001 3.8990000000000005 C 20.52390000000001 3.9135000000000004 20.48040000000001 3.9570000000000003 20.45140000000001 3.9715000000000003 C 20.379000000000012 3.9280000000000004 20.32100000000001 3.8990000000000005 20.24850000000001 3.8555 L 18.98760000000001 3.8555 C 18.74120000000001 3.928 18.48030000000001 3.9135 18.233900000000013 3.87 L 18.233900000000013 4.1454 L 16.16130000000001 4.1454 C 16.07430000000001 4.2179 15.987400000000012 4.2614 15.871500000000012 4.2759 C 15.914900000000012 4.4933 15.668500000000012 4.5512 15.581500000000013 4.7107 C 15.523600000000012 4.7977 15.436700000000013 4.8556 15.349700000000013 4.8846 C 15.277200000000013 5.3339 15.436700000000013 5.7542 15.552700000000012 6.1746 C 15.422200000000013 6.2036 15.277200000000013 6.247 15.146700000000012 6.276 C 15.074300000000012 6.5659 15.001800000000012 6.8702 14.943900000000012 7.16 C 14.885900000000012 7.421 14.682900000000012 7.6384 14.436600000000011 7.7398 C 14.262600000000011 7.9428 14.030800000000012 8.1457 13.75540000000001 8.1602 C 13.65390000000001 8.1892 13.581400000000011 8.1167 13.509000000000011 8.0587 C 13.146700000000012 8.0877 12.81330000000001 7.9137 12.494400000000011 7.7688 C 12.146600000000012 7.6094 11.82770000000001 7.406499999999999 11.494400000000011 7.2181 C 11.523400000000011 7.420999999999999 11.421900000000011 7.5949 11.349400000000012 7.7688 C 11.508900000000011 7.8412999999999995 11.726300000000013 7.899299999999999 11.813200000000013 8.0732 C 11.871200000000012 8.2036 11.929200000000012 8.3486 11.929200000000012 8.508 C 11.914700000000012 9.0298 11.856700000000012 9.551499999999999 11.827700000000013 10.0733 C 11.842200000000012 10.450199999999999 11.653800000000013 10.827 11.392900000000013 11.1023 C 11.219000000000014 11.0879 11.074100000000014 11.0154 10.914600000000013 10.9429 C 10.856600000000013 11.0734 10.726200000000013 11.203899999999999 10.798600000000013 11.3633 C 10.856600000000013 11.5517 10.856600000000013 11.7546 10.943600000000012 11.928500000000001 C 11.436400000000013 12.450300000000002 11.856700000000012 13.030000000000001 12.161100000000012 13.682200000000002 C 12.465400000000011 14.305500000000002 12.697300000000013 14.957700000000003 12.943700000000012 15.609900000000001 C 12.987200000000012 15.609900000000001 13.074200000000012 15.595400000000001 13.117700000000012 15.595400000000001 C 13.175700000000012 15.783800000000001 13.117700000000012 16.0012 13.233700000000011 16.1752 C 13.335100000000011 16.334600000000002 13.306100000000011 16.523 13.306100000000011 16.7114 C 13.277100000000011 17.1462 13.248100000000012 17.581 13.204600000000012 18.015800000000002 C 13.175600000000012 18.320200000000003 13.103200000000012 18.6246 13.059700000000012 18.929000000000002 C 13.074200000000012 19.160800000000002 13.175700000000012 19.3927 13.161100000000012 19.6246 C 13.146700000000012 19.842100000000002 13.146700000000012 20.073900000000002 12.972700000000012 20.2334 C 12.987200000000012 20.7262 12.856700000000012 21.218899999999998 13.030700000000012 21.6972 C 13.262700000000011 22.016099999999998 13.523500000000013 22.3205 13.798900000000012 22.595799999999997 C 14.103200000000012 22.740799999999997 14.465600000000013 22.769799999999996 14.726500000000012 23.030699999999996 C 14.827900000000012 23.190099999999997 14.769900000000012 23.378499999999995 14.741000000000012 23.552399999999995 C 14.12080031552604 23.639363695661633 13.491499684473984 23.639363695661633 12.87130000000001 23.552399999999995 C 12.624900000000013 23.494399999999995 12.393000000000011 23.392999999999994 12.146600000000012 23.363999999999994 C 11.813200000000013 23.378499999999995 11.421900000000011 23.508999999999993 11.117600000000012 23.276999999999994 C 11.088600000000012 22.885699999999993 11.233500000000012 22.508899999999993 11.306000000000012 22.131999999999994 C 11.335000000000012 22.001599999999993 11.465400000000011 21.914599999999993 11.450900000000011 21.784199999999995 C 11.421900000000011 21.334899999999994 11.392900000000012 20.871099999999995 11.363900000000012 20.421799999999994 C 11.305900000000012 20.392799999999994 11.204500000000012 20.363799999999994 11.219000000000012 20.276799999999994 C 11.219000000000012 20.059499999999993 11.146500000000012 19.842099999999995 11.088600000000012 19.639099999999996 C 10.987100000000012 19.088399999999996 10.943600000000012 18.523099999999996 10.929100000000012 17.957899999999995 C 10.914600000000013 17.798399999999994 11.016100000000012 17.682499999999994 11.132100000000012 17.580999999999996 C 11.161100000000012 17.334599999999995 11.190100000000012 17.073799999999995 11.204500000000012 16.827399999999997 C 11.161000000000012 16.696899999999996 11.059500000000012 16.595399999999998 11.001500000000012 16.479499999999998 C 10.740700000000013 16.508499999999998 10.363900000000012 16.566499999999998 10.204500000000012 16.291099999999997 C 9.827600000000011 15.725799999999996 9.436300000000012 15.146099999999997 9.059500000000012 14.580899999999996 C 8.900000000000013 14.566399999999996 8.711600000000013 14.580899999999996 8.566700000000012 14.479399999999996 C 8.407200000000012 14.305399999999997 8.305700000000012 14.073599999999997 8.204300000000012 13.856199999999996 C 8.160800000000012 14.030099999999996 8.131800000000013 14.218499999999995 8.030300000000013 14.363399999999995 C 7.943400000000013 14.508399999999995 7.798500000000013 14.609799999999995 7.6970000000000125 14.740299999999994 C 7.595600000000013 14.972199999999994 7.508600000000013 15.204099999999993 7.421700000000013 15.435999999999995 C 7.320200000000013 15.725799999999994 7.1753000000000124 16.015699999999995 7.1463000000000125 16.334599999999995 C 7.131800000000013 16.493999999999996 7.102800000000013 16.638999999999996 7.044800000000013 16.783899999999996 C 6.972400000000013 16.899899999999995 6.841900000000013 16.943299999999997 6.726000000000013 17.001299999999997 C 6.639000000000014 17.1897 6.581000000000014 17.378099999999996 6.450600000000013 17.537599999999998 C 6.363600000000013 17.639 6.218600000000013 17.668 6.160700000000013 17.798399999999997 C 6.102700000000013 17.972399999999997 6.015700000000013 18.1318 5.943300000000013 18.291199999999996 C 5.914300000000013 18.465199999999996 6.030300000000013 18.653599999999997 5.972300000000013 18.827499999999997 C 5.870800000000013 19.262299999999996 5.653400000000013 19.668099999999995 5.450500000000013 20.059499999999996 C 5.349100000000013 20.349299999999996 5.2766000000000135 20.653699999999997 5.131700000000013 20.929099999999995 C 5.073700000000013 21.045099999999994 4.9287000000000125 21.074099999999994 4.812800000000013 21.088499999999996 C 4.682400000000013 21.407399999999996 4.537400000000012 21.711699999999997 4.450500000000012 22.045099999999998 C 4.4070000000000125 22.363899999999997 4.4070000000000125 22.6973 4.421500000000012 23.016099999999998 C 4.421500000000012 23.161099999999998 4.508500000000012 23.277099999999997 4.566500000000012 23.4075 C 4.624400000000012 23.5815 4.580900000000012 23.7553 4.551900000000012 23.929299999999998 C 3.9867000000000123 24.001699999999996 3.4069000000000123 24.0597 2.8562000000000123 23.885799999999996 C 2.7982000000000125 23.842299999999994 2.8127000000000124 23.769799999999996 2.7982000000000125 23.711799999999997 C 2.7547000000000126 23.450999999999997 2.7257000000000127 23.175599999999996 2.8127000000000124 22.929199999999998 C 3.0011000000000125 22.247999999999998 3.1605000000000123 21.566799999999997 3.3489000000000124 20.885599999999997 C 3.2765000000000124 20.813099999999995 3.1750000000000123 20.755199999999995 3.1750000000000123 20.639199999999995 C 3.1605000000000123 20.450799999999994 3.1750000000000123 20.247899999999994 3.218500000000012 20.059499999999996 C 3.3055000000000123 19.740499999999997 3.5374000000000123 19.494199999999996 3.653300000000012 19.189799999999995 C 3.696800000000012 19.059399999999993 3.682300000000012 18.928899999999995 3.696800000000012 18.798499999999994 C 3.696800000000012 18.494099999999992 3.870800000000012 18.247699999999995 4.001200000000012 17.986899999999995 C 4.131600000000012 17.769499999999994 4.233000000000012 17.537599999999994 4.4070000000000125 17.349099999999996 C 4.523000000000012 17.247699999999995 4.523000000000012 17.088299999999997 4.609900000000012 16.957799999999995 C 4.696900000000012 16.798399999999994 4.841800000000012 16.667899999999996 4.841800000000012 16.479499999999994 C 4.870800000000012 16.247599999999995 4.783800000000012 16.015699999999995 4.812800000000012 15.783799999999994 C 4.870800000000012 15.102599999999994 5.001200000000011 14.435899999999993 5.117200000000012 13.754799999999994 C 5.059200000000012 13.682199999999995 4.972200000000012 13.609799999999995 4.943200000000012 13.508299999999995 C 4.9577000000000115 13.435899999999995 4.9722000000000115 13.377899999999995 4.9867000000000115 13.305399999999995 L 4.856300000000012 13.087999999999996 C 4.914300000000011 13.000999999999996 4.972300000000011 12.899599999999996 5.030300000000012 12.812599999999996 C 4.972300000000012 12.769099999999996 4.899800000000012 12.711199999999996 4.841800000000012 12.667599999999997 C 4.914300000000011 12.450299999999997 4.8853000000000115 12.131399999999996 5.146100000000011 12.029999999999998 C 5.175100000000011 12.044499999999998 5.247600000000011 12.058999999999997 5.276600000000011 12.073399999999998 C 5.233100000000011 11.696599999999998 5.233100000000011 11.305299999999997 5.189600000000011 10.928399999999998 C 5.088200000000011 10.522599999999999 5.073600000000011 10.102399999999998 5.117200000000011 9.696399999999999 C 5.262100000000011 9.479099999999999 5.537500000000011 9.3921 5.783900000000011 9.3776 C 5.4650000000000105 9.3052 5.14610000000001 9.2762 4.841800000000011 9.1747 C 4.827300000000011 8.9138 4.870800000000011 8.652899999999999 4.9143000000000105 8.3921 C 5.04470000000001 7.884799999999999 4.986700000000011 7.363099999999999 5.05920000000001 6.841199999999999 C 5.13170000000001 6.696299999999999 5.320100000000011 6.667299999999999 5.4795000000000105 6.696299999999999 C 5.66790000000001 6.725299999999999 5.856300000000011 6.667299999999999 6.04480000000001 6.609299999999999 C 6.04480000000001 6.536899999999999 6.05930000000001 6.4498999999999995 6.04480000000001 6.3774 C 5.9288000000000105 5.8702 5.95780000000001 5.3484 6.04480000000001 4.8556 C 6.16080000000001 4.2179 6.42160000000001 3.5946 6.89980000000001 3.1454 C 7.21880000000001 2.841 7.68250000000001 2.6959999999999997 8.11740000000001 2.7105 C 8.26230000000001 2.7105 8.34920000000001 2.8555 8.46520000000001 2.9425000000000003 C 8.52320000000001 2.8845000000000005 8.58120000000001 2.8265000000000002 8.62460000000001 2.7685000000000004 C 8.55220000000001 2.5221000000000005 8.43620000000001 2.2612000000000005 8.45070000000001 2.0004000000000004 C 8.47970000000001 1.4206000000000003 8.66810000000001 0.8264000000000005 9.10290000000001 0.4350000000000005 M 13.624900000000011 4.536700000000001 C 13.65390000000001 4.5657000000000005 13.65390000000001 4.5657000000000005 13.624900000000011 4.536700000000001 M 13.82790000000001 4.5657000000000005 C 13.84230000000001 4.6672 13.87130000000001 4.768700000000001 13.81340000000001 4.855600000000001 C 13.74090000000001 4.884600000000001 13.65390000000001 4.884600000000001 13.581400000000011 4.928100000000001 C 13.78440000000001 4.928100000000001 13.987300000000012 4.9426000000000005 14.190200000000011 4.928100000000001 C 14.349600000000011 4.884600000000001 14.291700000000011 4.6817 14.291700000000011 4.5657000000000005 C 14.190200000000011 4.449700000000001 13.972800000000012 4.522200000000001 13.82790000000001 4.5657000000000005 M 13.32060000000001 5.1745 C 13.46560000000001 5.3339 13.53800000000001 5.5803 13.668400000000009 5.7397 C 13.856800000000009 5.4933 14.001800000000008 5.2324 14.21920000000001 5.015 C 13.95830000000001 5.0005 13.697400000000009 5.0295 13.43650000000001 5.0005 C 13.39300000000001 5.0584999999999996 13.36410000000001 5.116499999999999 13.32050000000001 5.1745 Z" stroke-linecap="round" />
</g>
<g transform="matrix(43.76 0 0 43.76 573.33 540)"  >
<path style="stroke: rgb(0,0,0); stroke-width: 0; stroke-dasharray: none; stroke-linecap: butt; stroke-dashoffset: 0; stroke-linejoin: miter; stroke-miterlimit: 4; fill: rgb(115,0,122); fill-rule: nonzero; opacity: 1;" vector-effect="non-scaling-stroke"  transform=" translate(-12, -12)" d="M 9.103 0.435 C 9.5377 0.04370000000000002 10.19 -0.10120000000000001 10.7552 0.07269999999999999 C 10.9726 0.1452 11.161 0.2757 11.363900000000001 0.40599999999999997 C 11.5234 0.5075 11.7118 0.5509999999999999 11.856700000000002 0.667 C 11.929200000000002 0.7250000000000001 11.871200000000002 0.8264 11.871200000000002 0.8988 C 12.059600000000001 1.3481 12.161100000000001 1.8409 12.001700000000001 2.3192000000000004 C 11.871200000000002 2.4786 11.639300000000002 2.5222 11.4509 2.5946000000000002 C 11.4219 2.7975000000000003 11.4944 2.9859 11.5234 3.1888 C 11.4799 3.2178 11.4509 3.2468 11.4074 3.2758000000000003 C 11.6828 3.2613000000000003 11.958200000000001 3.2033000000000005 12.233600000000001 3.1454000000000004 C 12.335 3.0439000000000003 12.4944 3.1019000000000005 12.6249 3.0874000000000006 C 12.6394 2.8844000000000007 12.7119 2.6960000000000006 12.7119 2.4931000000000005 C 12.7409 2.4931000000000005 12.7989 2.4786000000000006 12.8278 2.4641000000000006 C 12.8423 2.6091000000000006 12.8278 2.7541000000000007 12.8713 2.8990000000000005 C 12.9437 2.9570000000000003 13.0597 2.9280000000000004 13.1467 2.9424000000000006 C 13.1467 3.0004000000000004 13.1467 3.0584000000000007 13.1611 3.1164000000000005 C 14.8424 3.1019000000000005 16.5381 3.1164000000000005 18.2194 3.1164000000000005 L 18.2194 3.3628000000000005 L 18.3789 3.3628000000000005 L 18.3789 2.4207000000000005 L 18.567300000000003 2.4207000000000005 C 18.567300000000003 2.6816000000000004 18.5528 2.9279000000000006 18.567300000000003 3.1888000000000005 C 18.587141950983447 3.206951978390072 18.61291308488091 3.2172604319490574 18.639800000000005 3.2178000000000004 C 18.639800000000005 3.2468000000000004 18.654200000000003 3.3048000000000006 18.654200000000003 3.3338000000000005 C 18.712200000000003 3.2758000000000007 18.784700000000004 3.2323000000000004 18.871600000000004 3.2613000000000008 C 18.886100000000006 3.3048000000000006 18.900600000000004 3.348300000000001 18.915100000000006 3.4063000000000008 C 18.857100000000006 3.4643000000000006 18.828100000000006 3.5367000000000006 18.857100000000006 3.6236000000000006 C 19.321000000000005 3.6381000000000006 19.784800000000008 3.6236000000000006 20.263100000000005 3.6236000000000006 C 20.306500000000003 3.5656000000000008 20.379000000000005 3.5366000000000004 20.451500000000006 3.5076000000000005 C 20.480500000000006 3.5222000000000007 20.523900000000005 3.5512000000000006 20.538500000000006 3.5656000000000003 L 21.219600000000007 3.5656000000000003 C 21.248600000000007 3.6816000000000004 21.248600000000007 3.7976000000000005 21.23410000000001 3.8990000000000005 L 20.53840000000001 3.8990000000000005 C 20.52390000000001 3.9135000000000004 20.48040000000001 3.9570000000000003 20.45140000000001 3.9715000000000003 C 20.379000000000012 3.9280000000000004 20.32100000000001 3.8990000000000005 20.24850000000001 3.8555 L 18.98760000000001 3.8555 C 18.74120000000001 3.928 18.48030000000001 3.9135 18.233900000000013 3.87 L 18.233900000000013 4.1454 L 16.16130000000001 4.1454 C 16.07430000000001 4.2179 15.987400000000012 4.2614 15.871500000000012 4.2759 C 15.914900000000012 4.4933 15.668500000000012 4.5512 15.581500000000013 4.7107 C 15.523600000000012 4.7977 15.436700000000013 4.8556 15.349700000000013 4.8846 C 15.277200000000013 5.3339 15.436700000000013 5.7542 15.552700000000012 6.1746 C 15.422200000000013 6.2036 15.277200000000013 6.247 15.146700000000012 6.276 C 15.074300000000012 6.5659 15.001800000000012 6.8702 14.943900000000012 7.16 C 14.885900000000012 7.421 14.682900000000012 7.6384 14.436600000000011 7.7398 C 14.262600000000011 7.9428 14.030800000000012 8.1457 13.75540000000001 8.1602 C 13.65390000000001 8.1892 13.581400000000011 8.1167 13.509000000000011 8.0587 C 13.146700000000012 8.0877 12.81330000000001 7.9137 12.494400000000011 7.7688 C 12.146600000000012 7.6094 11.82770000000001 7.406499999999999 11.494400000000011 7.2181 C 11.523400000000011 7.420999999999999 11.421900000000011 7.5949 11.349400000000012 7.7688 C 11.508900000000011 7.8412999999999995 11.726300000000013 7.899299999999999 11.813200000000013 8.0732 C 11.871200000000012 8.2036 11.929200000000012 8.3486 11.929200000000012 8.508 C 11.914700000000012 9.0298 11.856700000000012 9.551499999999999 11.827700000000013 10.0733 C 11.842200000000012 10.450199999999999 11.653800000000013 10.827 11.392900000000013 11.1023 C 11.219000000000014 11.0879 11.074100000000014 11.0154 10.914600000000013 10.9429 C 10.856600000000013 11.0734 10.726200000000013 11.203899999999999 10.798600000000013 11.3633 C 10.856600000000013 11.5517 10.856600000000013 11.7546 10.943600000000012 11.928500000000001 C 11.436400000000013 12.450300000000002 11.856700000000012 13.030000000000001 12.161100000000012 13.682200000000002 C 12.465400000000011 14.305500000000002 12.697300000000013 14.957700000000003 12.943700000000012 15.609900000000001 C 12.987200000000012 15.609900000000001 13.074200000000012 15.595400000000001 13.117700000000012 15.595400000000001 C 13.175700000000012 15.783800000000001 13.117700000000012 16.0012 13.233700000000011 16.1752 C 13.335100000000011 16.334600000000002 13.306100000000011 16.523 13.306100000000011 16.7114 C 13.277100000000011 17.1462 13.248100000000012 17.581 13.204600000000012 18.015800000000002 C 13.175600000000012 18.320200000000003 13.103200000000012 18.6246 13.059700000000012 18.929000000000002 C 13.074200000000012 19.160800000000002 13.175700000000012 19.3927 13.161100000000012 19.6246 C 13.146700000000012 19.842100000000002 13.146700000000012 20.073900000000002 12.972700000000012 20.2334 C 12.987200000000012 20.7262 12.856700000000012 21.218899999999998 13.030700000000012 21.6972 C 13.262700000000011 22.016099999999998 13.523500000000013 22.3205 13.798900000000012 22.595799999999997 C 14.103200000000012 22.740799999999997 14.465600000000013 22.769799999999996 14.726500000000012 23.030699999999996 C 14.827900000000012 23.190099999999997 14.769900000000012 23.378499999999995 14.741000000000012 23.552399999999995 C 14.12080031552604 23.639363695661633 13.491499684473984 23.639363695661633 12.87130000000001 23.552399999999995 C 12.624900000000013 23.494399999999995 12.393000000000011 23.392999999999994 12.146600000000012 23.363999999999994 C 11.813200000000013 23.378499999999995 11.421900000000011 23.508999999999993 11.117600000000012 23.276999999999994 C 11.088600000000012 22.885699999999993 11.233500000000012 22.508899999999993 11.306000000000012 22.131999999999994 C 11.335000000000012 22.001599999999993 11.465400000000011 21.914599999999993 11.450900000000011 21.784199999999995 C 11.421900000000011 21.334899999999994 11.392900000000012 20.871099999999995 11.363900000000012 20.421799999999994 C 11.305900000000012 20.392799999999994 11.204500000000012 20.363799999999994 11.219000000000012 20.276799999999994 C 11.219000000000012 20.059499999999993 11.146500000000012 19.842099999999995 11.088600000000012 19.639099999999996 C 10.987100000000012 19.088399999999996 10.943600000000012 18.523099999999996 10.929100000000012 17.957899999999995 C 10.914600000000013 17.798399999999994 11.016100000000012 17.682499999999994 11.132100000000012 17.580999999999996 C 11.161100000000012 17.334599999999995 11.190100000000012 17.073799999999995 11.204500000000012 16.827399999999997 C 11.161000000000012 16.696899999999996 11.059500000000012 16.595399999999998 11.001500000000012 16.479499999999998 C 10.740700000000013 16.508499999999998 10.363900000000012 16.566499999999998 10.204500000000012 16.291099999999997 C 9.827600000000011 15.725799999999996 9.436300000000012 15.146099999999997 9.059500000000012 14.580899999999996 C 8.900000000000013 14.566399999999996 8.711600000000013 14.580899999999996 8.566700000000012 14.479399999999996 C 8.407200000000012 14.305399999999997 8.305700000000012 14.073599999999997 8.204300000000012 13.856199999999996 C 8.160800000000012 14.030099999999996 8.131800000000013 14.218499999999995 8.030300000000013 14.363399999999995 C 7.943400000000013 14.508399999999995 7.798500000000013 14.609799999999995 7.6970000000000125 14.740299999999994 C 7.595600000000013 14.972199999999994 7.508600000000013 15.204099999999993 7.421700000000013 15.435999999999995 C 7.320200000000013 15.725799999999994 7.1753000000000124 16.015699999999995 7.1463000000000125 16.334599999999995 C 7.131800000000013 16.493999999999996 7.102800000000013 16.638999999999996 7.044800000000013 16.783899999999996 C 6.972400000000013 16.899899999999995 6.841900000000013 16.943299999999997 6.726000000000013 17.001299999999997 C 6.639000000000014 17.1897 6.581000000000014 17.378099999999996 6.450600000000013 17.537599999999998 C 6.363600000000013 17.639 6.218600000000013 17.668 6.160700000000013 17.798399999999997 C 6.102700000000013 17.972399999999997 6.015700000000013 18.1318 5.943300000000013 18.291199999999996 C 5.914300000000013 18.465199999999996 6.030300000000013 18.653599999999997 5.972300000000013 18.827499999999997 C 5.870800000000013 19.262299999999996 5.653400000000013 19.668099999999995 5.450500000000013 20.059499999999996 C 5.349100000000013 20.349299999999996 5.2766000000000135 20.653699999999997 5.131700000000013 20.929099999999995 C 5.073700000000013 21.045099999999994 4.9287000000000125 21.074099999999994 4.812800000000013 21.088499999999996 C 4.682400000000013 21.407399999999996 4.537400000000012 21.711699999999997 4.450500000000012 22.045099999999998 C 4.4070000000000125 22.363899999999997 4.4070000000000125 22.6973 4.421500000000012 23.016099999999998 C 4.421500000000012 23.161099999999998 4.508500000000012 23.277099999999997 4.566500000000012 23.4075 C 4.624400000000012 23.5815 4.580900000000012 23.7553 4.551900000000012 23.929299999999998 C 3.9867000000000123 24.001699999999996 3.4069000000000123 24.0597 2.8562000000000123 23.885799999999996 C 2.7982000000000125 23.842299999999994 2.8127000000000124 23.769799999999996 2.7982000000000125 23.711799999999997 C 2.7547000000000126 23.450999999999997 2.7257000000000127 23.175599999999996 2.8127000000000124 22.929199999999998 C 3.0011000000000125 22.247999999999998 3.1605000000000123 21.566799999999997 3.3489000000000124 20.885599999999997 C 3.2765000000000124 20.813099999999995 3.1750000000000123 20.755199999999995 3.1750000000000123 20.639199999999995 C 3.1605000000000123 20.450799999999994 3.1750000000000123 20.247899999999994 3.218500000000012 20.059499999999996 C 3.3055000000000123 19.740499999999997 3.5374000000000123 19.494199999999996 3.653300000000012 19.189799999999995 C 3.696800000000012 19.059399999999993 3.682300000000012 18.928899999999995 3.696800000000012 18.798499999999994 C 3.696800000000012 18.494099999999992 3.870800000000012 18.247699999999995 4.001200000000012 17.986899999999995 C 4.131600000000012 17.769499999999994 4.233000000000012 17.537599999999994 4.4070000000000125 17.349099999999996 C 4.523000000000012 17.247699999999995 4.523000000000012 17.088299999999997 4.609900000000012 16.957799999999995 C 4.696900000000012 16.798399999999994 4.841800000000012 16.667899999999996 4.841800000000012 16.479499999999994 C 4.870800000000012 16.247599999999995 4.783800000000012 16.015699999999995 4.812800000000012 15.783799999999994 C 4.870800000000012 15.102599999999994 5.001200000000011 14.435899999999993 5.117200000000012 13.754799999999994 C 5.059200000000012 13.682199999999995 4.972200000000012 13.609799999999995 4.943200000000012 13.508299999999995 C 4.9577000000000115 13.435899999999995 4.9722000000000115 13.377899999999995 4.9867000000000115 13.305399999999995 L 4.856300000000012 13.087999999999996 C 4.914300000000011 13.000999999999996 4.972300000000011 12.899599999999996 5.030300000000012 12.812599999999996 C 4.972300000000012 12.769099999999996 4.899800000000012 12.711199999999996 4.841800000000012 12.667599999999997 C 4.914300000000011 12.450299999999997 4.8853000000000115 12.131399999999996 5.146100000000011 12.029999999999998 C 5.175100000000011 12.044499999999998 5.247600000000011 12.058999999999997 5.276600000000011 12.073399999999998 C 5.233100000000011 11.696599999999998 5.233100000000011 11.305299999999997 5.189600000000011 10.928399999999998 C 5.088200000000011 10.522599999999999 5.073600000000011 10.102399999999998 5.117200000000011 9.696399999999999 C 5.262100000000011 9.479099999999999 5.537500000000011 9.3921 5.783900000000011 9.3776 C 5.4650000000000105 9.3052 5.14610000000001 9.2762 4.841800000000011 9.1747 C 4.827300000000011 8.9138 4.870800000000011 8.652899999999999 4.9143000000000105 8.3921 C 5.04470000000001 7.884799999999999 4.986700000000011 7.363099999999999 5.05920000000001 6.841199999999999 C 5.13170000000001 6.696299999999999 5.320100000000011 6.667299999999999 5.4795000000000105 6.696299999999999 C 5.66790000000001 6.725299999999999 5.856300000000011 6.667299999999999 6.04480000000001 6.609299999999999 C 6.04480000000001 6.536899999999999 6.05930000000001 6.4498999999999995 6.04480000000001 6.3774 C 5.9288000000000105 5.8702 5.95780000000001 5.3484 6.04480000000001 4.8556 C 6.16080000000001 4.2179 6.42160000000001 3.5946 6.89980000000001 3.1454 C 7.21880000000001 2.841 7.68250000000001 2.6959999999999997 8.11740000000001 2.7105 C 8.26230000000001 2.7105 8.34920000000001 2.8555 8.46520000000001 2.9425000000000003 C 8.52320000000001 2.8845000000000005 8.58120000000001 2.8265000000000002 8.62460000000001 2.7685000000000004 C 8.55220000000001 2.5221000000000005 8.43620000000001 2.2612000000000005 8.45070000000001 2.0004000000000004 C 8.47970000000001 1.4206000000000003 8.66810000000001 0.8264000000000005 9.10290000000001 0.4350000000000005 M 13.624900000000011 4.536700000000001 C 13.65390000000001 4.5657000000000005 13.65390000000001 4.5657000000000005 13.624900000000011 4.536700000000001 M 13.82790000000001 4.5657000000000005 C 13.84230000000001 4.6672 13.87130000000001 4.768700000000001 13.81340000000001 4.855600000000001 C 13.74090000000001 4.884600000000001 13.65390000000001 4.884600000000001 13.581400000000011 4.928100000000001 C 13.78440000000001 4.928100000000001 13.987300000000012 4.9426000000000005 14.190200000000011 4.928100000000001 C 14.349600000000011 4.884600000000001 14.291700000000011 4.6817 14.291700000000011 4.5657000000000005 C 14.190200000000011 4.449700000000001 13.972800000000012 4.522200000000001 13.82790000000001 4.5657000000000005 M 13.32060000000001 5.1745 C 13.46560000000001 5.3339 13.53800000000001 5.5803 13.668400000000009 5.7397 C 13.856800000000009 5.4933 14.001800000000008 5.2324 14.21920000000001 5.015 C 13.95830000000001 5.0005 13.697400000000009 5.0295 13.43650000000001 5.0005 C 13.39300000000001 5.0584999999999996 13.36410000000001 5.116499999999999 13.32050000000001 5.1745 Z" stroke-linecap="round" />
</g>
<g transform="matrix(43.76 0 0 43.76 653.59 540)"  >
<path style="stroke: rgb(0,0,0); stroke-width: 0; stroke-dasharray: none; stroke-linecap: butt; stroke-dashoffset: 0; stroke-linejoin: miter; stroke-miterlimit: 4; fill: rgb(255,0,138); fill-rule: nonzero; opacity: 1;" vector-effect="non-scaling-stroke"  transform=" translate(-12, -12)" d="M 9.103 0.435 C 9.5377 0.04370000000000002 10.19 -0.10120000000000001 10.7552 0.07269999999999999 C 10.9726 0.1452 11.161 0.2757 11.363900000000001 0.40599999999999997 C 11.5234 0.5075 11.7118 0.5509999999999999 11.856700000000002 0.667 C 11.929200000000002 0.7250000000000001 11.871200000000002 0.8264 11.871200000000002 0.8988 C 12.059600000000001 1.3481 12.161100000000001 1.8409 12.001700000000001 2.3192000000000004 C 11.871200000000002 2.4786 11.639300000000002 2.5222 11.4509 2.5946000000000002 C 11.4219 2.7975000000000003 11.4944 2.9859 11.5234 3.1888 C 11.4799 3.2178 11.4509 3.2468 11.4074 3.2758000000000003 C 11.6828 3.2613000000000003 11.958200000000001 3.2033000000000005 12.233600000000001 3.1454000000000004 C 12.335 3.0439000000000003 12.4944 3.1019000000000005 12.6249 3.0874000000000006 C 12.6394 2.8844000000000007 12.7119 2.6960000000000006 12.7119 2.4931000000000005 C 12.7409 2.4931000000000005 12.7989 2.4786000000000006 12.8278 2.4641000000000006 C 12.8423 2.6091000000000006 12.8278 2.7541000000000007 12.8713 2.8990000000000005 C 12.9437 2.9570000000000003 13.0597 2.9280000000000004 13.1467 2.9424000000000006 C 13.1467 3.0004000000000004 13.1467 3.0584000000000007 13.1611 3.1164000000000005 C 14.8424 3.1019000000000005 16.5381 3.1164000000000005 18.2194 3.1164000000000005 L 18.2194 3.3628000000000005 L 18.3789 3.3628000000000005 L 18.3789 2.4207000000000005 L 18.567300000000003 2.4207000000000005 C 18.567300000000003 2.6816000000000004 18.5528 2.9279000000000006 18.567300000000003 3.1888000000000005 C 18.587141950983447 3.206951978390072 18.61291308488091 3.2172604319490574 18.639800000000005 3.2178000000000004 C 18.639800000000005 3.2468000000000004 18.654200000000003 3.3048000000000006 18.654200000000003 3.3338000000000005 C 18.712200000000003 3.2758000000000007 18.784700000000004 3.2323000000000004 18.871600000000004 3.2613000000000008 C 18.886100000000006 3.3048000000000006 18.900600000000004 3.348300000000001 18.915100000000006 3.4063000000000008 C 18.857100000000006 3.4643000000000006 18.828100000000006 3.5367000000000006 18.857100000000006 3.6236000000000006 C 19.321000000000005 3.6381000000000006 19.784800000000008 3.6236000000000006 20.263100000000005 3.6236000000000006 C 20.306500000000003 3.5656000000000008 20.379000000000005 3.5366000000000004 20.451500000000006 3.5076000000000005 C 20.480500000000006 3.5222000000000007 20.523900000000005 3.5512000000000006 20.538500000000006 3.5656000000000003 L 21.219600000000007 3.5656000000000003 C 21.248600000000007 3.6816000000000004 21.248600000000007 3.7976000000000005 21.23410000000001 3.8990000000000005 L 20.53840000000001 3.8990000000000005 C 20.52390000000001 3.9135000000000004 20.48040000000001 3.9570000000000003 20.45140000000001 3.9715000000000003 C 20.379000000000012 3.9280000000000004 20.32100000000001 3.8990000000000005 20.24850000000001 3.8555 L 18.98760000000001 3.8555 C 18.74120000000001 3.928 18.48030000000001 3.9135 18.233900000000013 3.87 L 18.233900000000013 4.1454 L 16.16130000000001 4.1454 C 16.07430000000001 4.2179 15.987400000000012 4.2614 15.871500000000012 4.2759 C 15.914900000000012 4.4933 15.668500000000012 4.5512 15.581500000000013 4.7107 C 15.523600000000012 4.7977 15.436700000000013 4.8556 15.349700000000013 4.8846 C 15.277200000000013 5.3339 15.436700000000013 5.7542 15.552700000000012 6.1746 C 15.422200000000013 6.2036 15.277200000000013 6.247 15.146700000000012 6.276 C 15.074300000000012 6.5659 15.001800000000012 6.8702 14.943900000000012 7.16 C 14.885900000000012 7.421 14.682900000000012 7.6384 14.436600000000011 7.7398 C 14.262600000000011 7.9428 14.030800000000012 8.1457 13.75540000000001 8.1602 C 13.65390000000001 8.1892 13.581400000000011 8.1167 13.509000000000011 8.0587 C 13.146700000000012 8.0877 12.81330000000001 7.9137 12.494400000000011 7.7688 C 12.146600000000012 7.6094 11.82770000000001 7.406499999999999 11.494400000000011 7.2181 C 11.523400000000011 7.420999999999999 11.421900000000011 7.5949 11.349400000000012 7.7688 C 11.508900000000011 7.8412999999999995 11.726300000000013 7.899299999999999 11.813200000000013 8.0732 C 11.871200000000012 8.2036 11.929200000000012 8.3486 11.929200000000012 8.508 C 11.914700000000012 9.0298 11.856700000000012 9.551499999999999 11.827700000000013 10.0733 C 11.842200000000012 10.450199999999999 11.653800000000013 10.827 11.392900000000013 11.1023 C 11.219000000000014 11.0879 11.074100000000014 11.0154 10.914600000000013 10.9429 C 10.856600000000013 11.0734 10.726200000000013 11.203899999999999 10.798600000000013 11.3633 C 10.856600000000013 11.5517 10.856600000000013 11.7546 10.943600000000012 11.928500000000001 C 11.436400000000013 12.450300000000002 11.856700000000012 13.030000000000001 12.161100000000012 13.682200000000002 C 12.465400000000011 14.305500000000002 12.697300000000013 14.957700000000003 12.943700000000012 15.609900000000001 C 12.987200000000012 15.609900000000001 13.074200000000012 15.595400000000001 13.117700000000012 15.595400000000001 C 13.175700000000012 15.783800000000001 13.117700000000012 16.0012 13.233700000000011 16.1752 C 13.335100000000011 16.334600000000002 13.306100000000011 16.523 13.306100000000011 16.7114 C 13.277100000000011 17.1462 13.248100000000012 17.581 13.204600000000012 18.015800000000002 C 13.175600000000012 18.320200000000003 13.103200000000012 18.6246 13.059700000000012 18.929000000000002 C 13.074200000000012 19.160800000000002 13.175700000000012 19.3927 13.161100000000012 19.6246 C 13.146700000000012 19.842100000000002 13.146700000000012 20.073900000000002 12.972700000000012 20.2334 C 12.987200000000012 20.7262 12.856700000000012 21.218899999999998 13.030700000000012 21.6972 C 13.262700000000011 22.016099999999998 13.523500000000013 22.3205 13.798900000000012 22.595799999999997 C 14.103200000000012 22.740799999999997 14.465600000000013 22.769799999999996 14.726500000000012 23.030699999999996 C 14.827900000000012 23.190099999999997 14.769900000000012 23.378499999999995 14.741000000000012 23.552399999999995 C 14.12080031552604 23.639363695661633 13.491499684473984 23.639363695661633 12.87130000000001 23.552399999999995 C 12.624900000000013 23.494399999999995 12.393000000000011 23.392999999999994 12.146600000000012 23.363999999999994 C 11.813200000000013 23.378499999999995 11.421900000000011 23.508999999999993 11.117600000000012 23.276999999999994 C 11.088600000000012 22.885699999999993 11.233500000000012 22.508899999999993 11.306000000000012 22.131999999999994 C 11.335000000000012 22.001599999999993 11.465400000000011 21.914599999999993 11.450900000000011 21.784199999999995 C 11.421900000000011 21.334899999999994 11.392900000000012 20.871099999999995 11.363900000000012 20.421799999999994 C 11.305900000000012 20.392799999999994 11.204500000000012 20.363799999999994 11.219000000000012 20.276799999999994 C 11.219000000000012 20.059499999999993 11.146500000000012 19.842099999999995 11.088600000000012 19.639099999999996 C 10.987100000000012 19.088399999999996 10.943600000000012 18.523099999999996 10.929100000000012 17.957899999999995 C 10.914600000000013 17.798399999999994 11.016100000000012 17.682499999999994 11.132100000000012 17.580999999999996 C 11.161100000000012 17.334599999999995 11.190100000000012 17.073799999999995 11.204500000000012 16.827399999999997 C 11.161000000000012 16.696899999999996 11.059500000000012 16.595399999999998 11.001500000000012 16.479499999999998 C 10.740700000000013 16.508499999999998 10.363900000000012 16.566499999999998 10.204500000000012 16.291099999999997 C 9.827600000000011 15.725799999999996 9.436300000000012 15.146099999999997 9.059500000000012 14.580899999999996 C 8.900000000000013 14.566399999999996 8.711600000000013 14.580899999999996 8.566700000000012 14.479399999999996 C 8.407200000000012 14.305399999999997 8.305700000000012 14.073599999999997 8.204300000000012 13.856199999999996 C 8.160800000000012 14.030099999999996 8.131800000000013 14.218499999999995 8.030300000000013 14.363399999999995 C 7.943400000000013 14.508399999999995 7.798500000000013 14.609799999999995 7.6970000000000125 14.740299999999994 C 7.595600000000013 14.972199999999994 7.508600000000013 15.204099999999993 7.421700000000013 15.435999999999995 C 7.320200000000013 15.725799999999994 7.1753000000000124 16.015699999999995 7.1463000000000125 16.334599999999995 C 7.131800000000013 16.493999999999996 7.102800000000013 16.638999999999996 7.044800000000013 16.783899999999996 C 6.972400000000013 16.899899999999995 6.841900000000013 16.943299999999997 6.726000000000013 17.001299999999997 C 6.639000000000014 17.1897 6.581000000000014 17.378099999999996 6.450600000000013 17.537599999999998 C 6.363600000000013 17.639 6.218600000000013 17.668 6.160700000000013 17.798399999999997 C 6.102700000000013 17.972399999999997 6.015700000000013 18.1318 5.943300000000013 18.291199999999996 C 5.914300000000013 18.465199999999996 6.030300000000013 18.653599999999997 5.972300000000013 18.827499999999997 C 5.870800000000013 19.262299999999996 5.653400000000013 19.668099999999995 5.450500000000013 20.059499999999996 C 5.349100000000013 20.349299999999996 5.2766000000000135 20.653699999999997 5.131700000000013 20.929099999999995 C 5.073700000000013 21.045099999999994 4.9287000000000125 21.074099999999994 4.812800000000013 21.088499999999996 C 4.682400000000013 21.407399999999996 4.537400000000012 21.711699999999997 4.450500000000012 22.045099999999998 C 4.4070000000000125 22.363899999999997 4.4070000000000125 22.6973 4.421500000000012 23.016099999999998 C 4.421500000000012 23.161099999999998 4.508500000000012 23.277099999999997 4.566500000000012 23.4075 C 4.624400000000012 23.5815 4.580900000000012 23.7553 4.551900000000012 23.929299999999998 C 3.9867000000000123 24.001699999999996 3.4069000000000123 24.0597 2.8562000000000123 23.885799999999996 C 2.7982000000000125 23.842299999999994 2.8127000000000124 23.769799999999996 2.7982000000000125 23.711799999999997 C 2.7547000000000126 23.450999999999997 2.7257000000000127 23.175599999999996 2.8127000000000124 22.929199999999998 C 3.0011000000000125 22.247999999999998 3.1605000000000123 21.566799999999997 3.3489000000000124 20.885599999999997 C 3.2765000000000124 20.813099999999995 3.1750000000000123 20.755199999999995 3.1750000000000123 20.639199999999995 C 3.1605000000000123 20.450799999999994 3.1750000000000123 20.247899999999994 3.218500000000012 20.059499999999996 C 3.3055000000000123 19.740499999999997 3.5374000000000123 19.494199999999996 3.653300000000012 19.189799999999995 C 3.696800000000012 19.059399999999993 3.682300000000012 18.928899999999995 3.696800000000012 18.798499999999994 C 3.696800000000012 18.494099999999992 3.870800000000012 18.247699999999995 4.001200000000012 17.986899999999995 C 4.131600000000012 17.769499999999994 4.233000000000012 17.537599999999994 4.4070000000000125 17.349099999999996 C 4.523000000000012 17.247699999999995 4.523000000000012 17.088299999999997 4.609900000000012 16.957799999999995 C 4.696900000000012 16.798399999999994 4.841800000000012 16.667899999999996 4.841800000000012 16.479499999999994 C 4.870800000000012 16.247599999999995 4.783800000000012 16.015699999999995 4.812800000000012 15.783799999999994 C 4.870800000000012 15.102599999999994 5.001200000000011 14.435899999999993 5.117200000000012 13.754799999999994 C 5.059200000000012 13.682199999999995 4.972200000000012 13.609799999999995 4.943200000000012 13.508299999999995 C 4.9577000000000115 13.435899999999995 4.9722000000000115 13.377899999999995 4.9867000000000115 13.305399999999995 L 4.856300000000012 13.087999999999996 C 4.914300000000011 13.000999999999996 4.972300000000011 12.899599999999996 5.030300000000012 12.812599999999996 C 4.972300000000012 12.769099999999996 4.899800000000012 12.711199999999996 4.841800000000012 12.667599999999997 C 4.914300000000011 12.450299999999997 4.8853000000000115 12.131399999999996 5.146100000000011 12.029999999999998 C 5.175100000000011 12.044499999999998 5.247600000000011 12.058999999999997 5.276600000000011 12.073399999999998 C 5.233100000000011 11.696599999999998 5.233100000000011 11.305299999999997 5.189600000000011 10.928399999999998 C 5.088200000000011 10.522599999999999 5.073600000000011 10.102399999999998 5.117200000000011 9.696399999999999 C 5.262100000000011 9.479099999999999 5.537500000000011 9.3921 5.783900000000011 9.3776 C 5.4650000000000105 9.3052 5.14610000000001 9.2762 4.841800000000011 9.1747 C 4.827300000000011 8.9138 4.870800000000011 8.652899999999999 4.9143000000000105 8.3921 C 5.04470000000001 7.884799999999999 4.986700000000011 7.363099999999999 5.05920000000001 6.841199999999999 C 5.13170000000001 6.696299999999999 5.320100000000011 6.667299999999999 5.4795000000000105 6.696299999999999 C 5.66790000000001 6.725299999999999 5.856300000000011 6.667299999999999 6.04480000000001 6.609299999999999 C 6.04480000000001 6.536899999999999 6.05930000000001 6.4498999999999995 6.04480000000001 6.3774 C 5.9288000000000105 5.8702 5.95780000000001 5.3484 6.04480000000001 4.8556 C 6.16080000000001 4.2179 6.42160000000001 3.5946 6.89980000000001 3.1454 C 7.21880000000001 2.841 7.68250000000001 2.6959999999999997 8.11740000000001 2.7105 C 8.26230000000001 2.7105 8.34920000000001 2.8555 8.46520000000001 2.9425000000000003 C 8.52320000000001 2.8845000000000005 8.58120000000001 2.8265000000000002 8.62460000000001 2.7685000000000004 C 8.55220000000001 2.5221000000000005 8.43620000000001 2.2612000000000005 8.45070000000001 2.0004000000000004 C 8.47970000000001 1.4206000000000003 8.66810000000001 0.8264000000000005 9.10290000000001 0.4350000000000005 M 13.624900000000011 4.536700000000001 C 13.65390000000001 4.5657000000000005 13.65390000000001 4.5657000000000005 13.624900000000011 4.536700000000001 M 13.82790000000001 4.5657000000000005 C 13.84230000000001 4.6672 13.87130000000001 4.768700000000001 13.81340000000001 4.855600000000001 C 13.74090000000001 4.884600000000001 13.65390000000001 4.884600000000001 13.581400000000011 4.928100000000001 C 13.78440000000001 4.928100000000001 13.987300000000012 4.9426000000000005 14.190200000000011 4.928100000000001 C 14.349600000000011 4.884600000000001 14.291700000000011 4.6817 14.291700000000011 4.5657000000000005 C 14.190200000000011 4.449700000000001 13.972800000000012 4.522200000000001 13.82790000000001 4.5657000000000005 M 13.32060000000001 5.1745 C 13.46560000000001 5.3339 13.53800000000001 5.5803 13.668400000000009 5.7397 C 13.856800000000009 5.4933 14.001800000000008 5.2324 14.21920000000001 5.015 C 13.95830000000001 5.0005 13.697400000000009 5.0295 13.43650000000001 5.0005 C 13.39300000000001 5.0584999999999996 13.36410000000001 5.116499999999999 13.32050000000001 5.1745 Z" stroke-linecap="round" />
</g>
</svg>